<mxfile host="Electron" agent="Mozilla/5.0 (Macintosh; Intel Mac OS X 10_15_7) AppleWebKit/537.36 (KHTML, like Gecko) draw.io/25.0.2 Chrome/128.0.6613.186 Electron/32.2.5 Safari/537.36" version="25.0.2">
  <diagram name="Page-1" id="63v2geUp8_ejQTqnvD6u">
    <mxGraphModel dx="1710" dy="1238" grid="1" gridSize="10" guides="1" tooltips="1" connect="1" arrows="1" fold="1" page="1" pageScale="1" pageWidth="850" pageHeight="1100" math="0" shadow="0">
      <root>
        <mxCell id="0" />
        <mxCell id="1" parent="0" />
        <mxCell id="BRmMSrhpgf5mqmjx6hY6-1" value="{Index, offset}" style="rounded=0;whiteSpace=wrap;html=1;" vertex="1" parent="1">
          <mxGeometry x="200" y="162.5" width="40" height="160" as="geometry" />
        </mxCell>
        <mxCell id="BRmMSrhpgf5mqmjx6hY6-4" value="" style="triangle;whiteSpace=wrap;html=1;rotation=90;" vertex="1" parent="1">
          <mxGeometry x="202.5" y="160" width="35" height="40" as="geometry" />
        </mxCell>
        <mxCell id="BRmMSrhpgf5mqmjx6hY6-5" value="Way 0" style="rounded=0;whiteSpace=wrap;html=1;" vertex="1" parent="1">
          <mxGeometry x="240" y="162.5" width="120" height="160" as="geometry" />
        </mxCell>
        <mxCell id="BRmMSrhpgf5mqmjx6hY6-111" style="edgeStyle=orthogonalEdgeStyle;rounded=0;orthogonalLoop=1;jettySize=auto;html=1;exitX=1;exitY=0.25;exitDx=0;exitDy=0;entryX=0;entryY=0.25;entryDx=0;entryDy=0;" edge="1" parent="1" source="BRmMSrhpgf5mqmjx6hY6-8" target="BRmMSrhpgf5mqmjx6hY6-40">
          <mxGeometry relative="1" as="geometry" />
        </mxCell>
        <mxCell id="BRmMSrhpgf5mqmjx6hY6-112" value="Offset" style="edgeLabel;html=1;align=center;verticalAlign=middle;resizable=0;points=[];" vertex="1" connectable="0" parent="BRmMSrhpgf5mqmjx6hY6-111">
          <mxGeometry x="-0.0742" y="-2" relative="1" as="geometry">
            <mxPoint as="offset" />
          </mxGeometry>
        </mxCell>
        <mxCell id="BRmMSrhpgf5mqmjx6hY6-129" style="edgeStyle=orthogonalEdgeStyle;rounded=0;orthogonalLoop=1;jettySize=auto;html=1;exitX=1;exitY=0.75;exitDx=0;exitDy=0;entryX=0.5;entryY=0;entryDx=0;entryDy=0;" edge="1" parent="1" source="BRmMSrhpgf5mqmjx6hY6-8" target="BRmMSrhpgf5mqmjx6hY6-126">
          <mxGeometry relative="1" as="geometry" />
        </mxCell>
        <mxCell id="BRmMSrhpgf5mqmjx6hY6-132" value="VPN" style="edgeLabel;html=1;align=center;verticalAlign=middle;resizable=0;points=[];" vertex="1" connectable="0" parent="BRmMSrhpgf5mqmjx6hY6-129">
          <mxGeometry x="0.315" y="1" relative="1" as="geometry">
            <mxPoint as="offset" />
          </mxGeometry>
        </mxCell>
        <mxCell id="BRmMSrhpgf5mqmjx6hY6-8" value="VA" style="rounded=0;whiteSpace=wrap;html=1;" vertex="1" parent="1">
          <mxGeometry x="199.5" y="962.5" width="40" height="160" as="geometry" />
        </mxCell>
        <mxCell id="BRmMSrhpgf5mqmjx6hY6-9" value="" style="triangle;whiteSpace=wrap;html=1;rotation=90;" vertex="1" parent="1">
          <mxGeometry x="202" y="960" width="35" height="40" as="geometry" />
        </mxCell>
        <mxCell id="BRmMSrhpgf5mqmjx6hY6-34" style="edgeStyle=orthogonalEdgeStyle;rounded=0;orthogonalLoop=1;jettySize=auto;html=1;exitX=1;exitY=0.5;exitDx=0;exitDy=0;entryX=0;entryY=0.5;entryDx=0;entryDy=0;" edge="1" parent="1" source="BRmMSrhpgf5mqmjx6hY6-20" target="BRmMSrhpgf5mqmjx6hY6-1">
          <mxGeometry relative="1" as="geometry" />
        </mxCell>
        <mxCell id="BRmMSrhpgf5mqmjx6hY6-36" style="edgeStyle=orthogonalEdgeStyle;rounded=0;orthogonalLoop=1;jettySize=auto;html=1;exitX=1;exitY=0.5;exitDx=0;exitDy=0;entryX=0;entryY=0.5;entryDx=0;entryDy=0;" edge="1" parent="1" source="BRmMSrhpgf5mqmjx6hY6-20" target="BRmMSrhpgf5mqmjx6hY6-8">
          <mxGeometry relative="1" as="geometry" />
        </mxCell>
        <mxCell id="BRmMSrhpgf5mqmjx6hY6-69" style="edgeStyle=orthogonalEdgeStyle;rounded=0;orthogonalLoop=1;jettySize=auto;html=1;exitX=1;exitY=0.5;exitDx=0;exitDy=0;entryX=0;entryY=0.5;entryDx=0;entryDy=0;" edge="1" parent="1" source="BRmMSrhpgf5mqmjx6hY6-20" target="BRmMSrhpgf5mqmjx6hY6-61">
          <mxGeometry relative="1" as="geometry" />
        </mxCell>
        <mxCell id="BRmMSrhpgf5mqmjx6hY6-20" value="VA" style="whiteSpace=wrap;html=1;aspect=fixed;" vertex="1" parent="1">
          <mxGeometry x="40" y="360" width="80" height="80" as="geometry" />
        </mxCell>
        <mxCell id="BRmMSrhpgf5mqmjx6hY6-21" value="{Index, offset}" style="rounded=0;whiteSpace=wrap;html=1;" vertex="1" parent="1">
          <mxGeometry x="200" y="362.5" width="40" height="160" as="geometry" />
        </mxCell>
        <mxCell id="BRmMSrhpgf5mqmjx6hY6-22" value="" style="triangle;whiteSpace=wrap;html=1;rotation=90;" vertex="1" parent="1">
          <mxGeometry x="202.5" y="360" width="35" height="40" as="geometry" />
        </mxCell>
        <mxCell id="BRmMSrhpgf5mqmjx6hY6-23" value="Way 1" style="rounded=0;whiteSpace=wrap;html=1;" vertex="1" parent="1">
          <mxGeometry x="240" y="362.5" width="120" height="160" as="geometry" />
        </mxCell>
        <mxCell id="BRmMSrhpgf5mqmjx6hY6-24" value="rdata" style="rounded=0;whiteSpace=wrap;html=1;" vertex="1" parent="1">
          <mxGeometry x="359" y="162.5" width="40" height="160" as="geometry" />
        </mxCell>
        <mxCell id="BRmMSrhpgf5mqmjx6hY6-25" value="" style="triangle;whiteSpace=wrap;html=1;rotation=90;" vertex="1" parent="1">
          <mxGeometry x="361.5" y="160" width="35" height="40" as="geometry" />
        </mxCell>
        <mxCell id="BRmMSrhpgf5mqmjx6hY6-26" value="rdata" style="rounded=0;whiteSpace=wrap;html=1;" vertex="1" parent="1">
          <mxGeometry x="359" y="362.5" width="40" height="160" as="geometry" />
        </mxCell>
        <mxCell id="BRmMSrhpgf5mqmjx6hY6-27" value="" style="triangle;whiteSpace=wrap;html=1;rotation=90;" vertex="1" parent="1">
          <mxGeometry x="361.5" y="360" width="35" height="40" as="geometry" />
        </mxCell>
        <mxCell id="BRmMSrhpgf5mqmjx6hY6-32" style="edgeStyle=orthogonalEdgeStyle;rounded=0;orthogonalLoop=1;jettySize=auto;html=1;exitX=1;exitY=0.5;exitDx=0;exitDy=-5;exitPerimeter=0;entryX=0;entryY=0.5;entryDx=0;entryDy=0;" edge="1" parent="1" source="BRmMSrhpgf5mqmjx6hY6-28" target="BRmMSrhpgf5mqmjx6hY6-31">
          <mxGeometry relative="1" as="geometry" />
        </mxCell>
        <mxCell id="BRmMSrhpgf5mqmjx6hY6-68" style="edgeStyle=orthogonalEdgeStyle;rounded=0;orthogonalLoop=1;jettySize=auto;html=1;exitX=1;exitY=0.5;exitDx=0;exitDy=-5;exitPerimeter=0;entryX=0;entryY=0.5;entryDx=0;entryDy=0;" edge="1" parent="1" source="BRmMSrhpgf5mqmjx6hY6-28" target="BRmMSrhpgf5mqmjx6hY6-67">
          <mxGeometry relative="1" as="geometry" />
        </mxCell>
        <mxCell id="BRmMSrhpgf5mqmjx6hY6-28" value="" style="shadow=0;dashed=0;align=center;html=1;strokeWidth=1;shape=mxgraph.electrical.abstract.mux2;whiteSpace=wrap;" vertex="1" parent="1">
          <mxGeometry x="469" y="280" width="80" height="140" as="geometry" />
        </mxCell>
        <mxCell id="BRmMSrhpgf5mqmjx6hY6-29" style="edgeStyle=orthogonalEdgeStyle;rounded=0;orthogonalLoop=1;jettySize=auto;html=1;exitX=1;exitY=0.5;exitDx=0;exitDy=0;entryX=0;entryY=0.22142857142857142;entryDx=0;entryDy=3;entryPerimeter=0;" edge="1" parent="1" source="BRmMSrhpgf5mqmjx6hY6-24" target="BRmMSrhpgf5mqmjx6hY6-28">
          <mxGeometry relative="1" as="geometry" />
        </mxCell>
        <mxCell id="BRmMSrhpgf5mqmjx6hY6-30" style="edgeStyle=orthogonalEdgeStyle;rounded=0;orthogonalLoop=1;jettySize=auto;html=1;exitX=1;exitY=0.5;exitDx=0;exitDy=0;entryX=0;entryY=0.6642857142857143;entryDx=0;entryDy=3;entryPerimeter=0;" edge="1" parent="1" source="BRmMSrhpgf5mqmjx6hY6-26" target="BRmMSrhpgf5mqmjx6hY6-28">
          <mxGeometry relative="1" as="geometry" />
        </mxCell>
        <mxCell id="BRmMSrhpgf5mqmjx6hY6-33" style="edgeStyle=orthogonalEdgeStyle;rounded=0;orthogonalLoop=1;jettySize=auto;html=1;exitX=1;exitY=0.5;exitDx=0;exitDy=0;" edge="1" parent="1" source="BRmMSrhpgf5mqmjx6hY6-31">
          <mxGeometry relative="1" as="geometry">
            <mxPoint x="769" y="344.9999999999999" as="targetPoint" />
          </mxGeometry>
        </mxCell>
        <mxCell id="BRmMSrhpgf5mqmjx6hY6-66" value="Read data" style="edgeLabel;html=1;align=center;verticalAlign=middle;resizable=0;points=[];" vertex="1" connectable="0" parent="BRmMSrhpgf5mqmjx6hY6-33">
          <mxGeometry x="-0.1114" y="4" relative="1" as="geometry">
            <mxPoint x="-1" as="offset" />
          </mxGeometry>
        </mxCell>
        <mxCell id="BRmMSrhpgf5mqmjx6hY6-31" value="Sign extend" style="whiteSpace=wrap;html=1;aspect=fixed;" vertex="1" parent="1">
          <mxGeometry x="589" y="305" width="80" height="80" as="geometry" />
        </mxCell>
        <mxCell id="BRmMSrhpgf5mqmjx6hY6-35" style="edgeStyle=orthogonalEdgeStyle;rounded=0;orthogonalLoop=1;jettySize=auto;html=1;exitX=1;exitY=0.5;exitDx=0;exitDy=0;entryX=0;entryY=0.547;entryDx=0;entryDy=0;entryPerimeter=0;" edge="1" parent="1" source="BRmMSrhpgf5mqmjx6hY6-20" target="BRmMSrhpgf5mqmjx6hY6-21">
          <mxGeometry relative="1" as="geometry" />
        </mxCell>
        <mxCell id="BRmMSrhpgf5mqmjx6hY6-44" style="edgeStyle=orthogonalEdgeStyle;rounded=0;orthogonalLoop=1;jettySize=auto;html=1;exitX=1;exitY=0.5;exitDx=0;exitDy=0;fillColor=#1ba1e2;strokeColor=#006EAF;" edge="1" parent="1" source="BRmMSrhpgf5mqmjx6hY6-37">
          <mxGeometry relative="1" as="geometry">
            <mxPoint x="659" y="643" as="targetPoint" />
          </mxGeometry>
        </mxCell>
        <mxCell id="BRmMSrhpgf5mqmjx6hY6-45" value="Miss?" style="edgeLabel;html=1;align=center;verticalAlign=middle;resizable=0;points=[];" vertex="1" connectable="0" parent="BRmMSrhpgf5mqmjx6hY6-44">
          <mxGeometry x="-0.1904" y="2" relative="1" as="geometry">
            <mxPoint as="offset" />
          </mxGeometry>
        </mxCell>
        <mxCell id="BRmMSrhpgf5mqmjx6hY6-37" value="Tag compare" style="whiteSpace=wrap;html=1;aspect=fixed;" vertex="1" parent="1">
          <mxGeometry x="469" y="602.5" width="80" height="80" as="geometry" />
        </mxCell>
        <mxCell id="BRmMSrhpgf5mqmjx6hY6-77" style="edgeStyle=orthogonalEdgeStyle;rounded=0;orthogonalLoop=1;jettySize=auto;html=1;exitX=1;exitY=0.5;exitDx=0;exitDy=0;entryX=0.5;entryY=1;entryDx=0;entryDy=0;" edge="1" parent="1" source="BRmMSrhpgf5mqmjx6hY6-40" target="BRmMSrhpgf5mqmjx6hY6-76">
          <mxGeometry relative="1" as="geometry" />
        </mxCell>
        <mxCell id="BRmMSrhpgf5mqmjx6hY6-40" value="PA" style="rounded=0;whiteSpace=wrap;html=1;" vertex="1" parent="1">
          <mxGeometry x="358.5" y="962.5" width="40" height="160" as="geometry" />
        </mxCell>
        <mxCell id="BRmMSrhpgf5mqmjx6hY6-41" value="" style="triangle;whiteSpace=wrap;html=1;rotation=90;" vertex="1" parent="1">
          <mxGeometry x="361" y="960" width="35" height="40" as="geometry" />
        </mxCell>
        <mxCell id="BRmMSrhpgf5mqmjx6hY6-43" style="edgeStyle=orthogonalEdgeStyle;rounded=0;orthogonalLoop=1;jettySize=auto;html=1;exitX=0.5;exitY=0;exitDx=0;exitDy=0;entryX=0.375;entryY=1;entryDx=10;entryDy=0;entryPerimeter=0;" edge="1" parent="1" source="BRmMSrhpgf5mqmjx6hY6-37" target="BRmMSrhpgf5mqmjx6hY6-28">
          <mxGeometry relative="1" as="geometry" />
        </mxCell>
        <mxCell id="BRmMSrhpgf5mqmjx6hY6-48" value="Way select" style="edgeLabel;html=1;align=center;verticalAlign=middle;resizable=0;points=[];" vertex="1" connectable="0" parent="BRmMSrhpgf5mqmjx6hY6-43">
          <mxGeometry x="0.2579" y="1" relative="1" as="geometry">
            <mxPoint as="offset" />
          </mxGeometry>
        </mxCell>
        <mxCell id="BRmMSrhpgf5mqmjx6hY6-51" value="Index" style="rounded=0;whiteSpace=wrap;html=1;" vertex="1" parent="1">
          <mxGeometry x="200" y="561.75" width="40" height="160" as="geometry" />
        </mxCell>
        <mxCell id="BRmMSrhpgf5mqmjx6hY6-52" value="" style="triangle;whiteSpace=wrap;html=1;rotation=90;" vertex="1" parent="1">
          <mxGeometry x="202.5" y="559.25" width="35" height="40" as="geometry" />
        </mxCell>
        <mxCell id="BRmMSrhpgf5mqmjx6hY6-53" value="Tag lookup (1 per way)" style="rounded=0;whiteSpace=wrap;html=1;" vertex="1" parent="1">
          <mxGeometry x="240" y="561.75" width="120" height="160" as="geometry" />
        </mxCell>
        <mxCell id="BRmMSrhpgf5mqmjx6hY6-74" style="edgeStyle=orthogonalEdgeStyle;rounded=0;orthogonalLoop=1;jettySize=auto;html=1;exitX=1;exitY=0.5;exitDx=0;exitDy=0;entryX=0;entryY=0.5;entryDx=0;entryDy=0;" edge="1" parent="1" source="BRmMSrhpgf5mqmjx6hY6-54" target="BRmMSrhpgf5mqmjx6hY6-37">
          <mxGeometry relative="1" as="geometry" />
        </mxCell>
        <mxCell id="BRmMSrhpgf5mqmjx6hY6-54" value="Tag" style="rounded=0;whiteSpace=wrap;html=1;" vertex="1" parent="1">
          <mxGeometry x="359" y="561.75" width="40" height="160" as="geometry" />
        </mxCell>
        <mxCell id="BRmMSrhpgf5mqmjx6hY6-55" value="" style="triangle;whiteSpace=wrap;html=1;rotation=90;" vertex="1" parent="1">
          <mxGeometry x="361.5" y="559.25" width="35" height="40" as="geometry" />
        </mxCell>
        <mxCell id="BRmMSrhpgf5mqmjx6hY6-56" style="edgeStyle=orthogonalEdgeStyle;rounded=0;orthogonalLoop=1;jettySize=auto;html=1;exitX=1;exitY=0.5;exitDx=0;exitDy=0;entryX=0;entryY=0.563;entryDx=0;entryDy=0;entryPerimeter=0;" edge="1" parent="1" source="BRmMSrhpgf5mqmjx6hY6-20" target="BRmMSrhpgf5mqmjx6hY6-51">
          <mxGeometry relative="1" as="geometry" />
        </mxCell>
        <mxCell id="BRmMSrhpgf5mqmjx6hY6-61" value="Index" style="rounded=0;whiteSpace=wrap;html=1;" vertex="1" parent="1">
          <mxGeometry x="199.5" y="761.25" width="40" height="160" as="geometry" />
        </mxCell>
        <mxCell id="BRmMSrhpgf5mqmjx6hY6-62" value="" style="triangle;whiteSpace=wrap;html=1;rotation=90;" vertex="1" parent="1">
          <mxGeometry x="202" y="758.75" width="35" height="40" as="geometry" />
        </mxCell>
        <mxCell id="BRmMSrhpgf5mqmjx6hY6-63" value="Valid, dirty, &amp;amp; used bit lookup" style="rounded=0;whiteSpace=wrap;html=1;" vertex="1" parent="1">
          <mxGeometry x="239.5" y="761.25" width="120.5" height="160" as="geometry" />
        </mxCell>
        <mxCell id="BRmMSrhpgf5mqmjx6hY6-75" style="edgeStyle=orthogonalEdgeStyle;rounded=0;orthogonalLoop=1;jettySize=auto;html=1;exitX=1;exitY=0.5;exitDx=0;exitDy=0;entryX=0.127;entryY=1.005;entryDx=0;entryDy=0;entryPerimeter=0;" edge="1" parent="1" source="BRmMSrhpgf5mqmjx6hY6-64" target="BRmMSrhpgf5mqmjx6hY6-37">
          <mxGeometry relative="1" as="geometry">
            <mxPoint x="479" y="690" as="targetPoint" />
          </mxGeometry>
        </mxCell>
        <mxCell id="BRmMSrhpgf5mqmjx6hY6-64" value="Valid, dirty, used" style="rounded=0;whiteSpace=wrap;html=1;" vertex="1" parent="1">
          <mxGeometry x="358.5" y="761.25" width="40" height="160" as="geometry" />
        </mxCell>
        <mxCell id="BRmMSrhpgf5mqmjx6hY6-65" value="" style="triangle;whiteSpace=wrap;html=1;rotation=90;" vertex="1" parent="1">
          <mxGeometry x="361" y="758.75" width="35" height="40" as="geometry" />
        </mxCell>
        <mxCell id="BRmMSrhpgf5mqmjx6hY6-134" style="edgeStyle=orthogonalEdgeStyle;rounded=0;orthogonalLoop=1;jettySize=auto;html=1;exitX=1;exitY=0.5;exitDx=0;exitDy=0;" edge="1" parent="1" source="BRmMSrhpgf5mqmjx6hY6-67">
          <mxGeometry relative="1" as="geometry">
            <mxPoint x="760" y="470.0952380952381" as="targetPoint" />
          </mxGeometry>
        </mxCell>
        <mxCell id="BRmMSrhpgf5mqmjx6hY6-135" value="Write data" style="edgeLabel;html=1;align=center;verticalAlign=middle;resizable=0;points=[];" vertex="1" connectable="0" parent="BRmMSrhpgf5mqmjx6hY6-134">
          <mxGeometry x="-0.3718" y="3" relative="1" as="geometry">
            <mxPoint x="12" y="3" as="offset" />
          </mxGeometry>
        </mxCell>
        <mxCell id="BRmMSrhpgf5mqmjx6hY6-67" value="Write data logic (including alu for amo)" style="whiteSpace=wrap;html=1;aspect=fixed;" vertex="1" parent="1">
          <mxGeometry x="589" y="430" width="80" height="80" as="geometry" />
        </mxCell>
        <mxCell id="BRmMSrhpgf5mqmjx6hY6-73" style="edgeStyle=orthogonalEdgeStyle;rounded=0;orthogonalLoop=1;jettySize=auto;html=1;exitX=1;exitY=0.5;exitDx=0;exitDy=0;entryX=0.25;entryY=1;entryDx=0;entryDy=0;" edge="1" parent="1" target="BRmMSrhpgf5mqmjx6hY6-37">
          <mxGeometry relative="1" as="geometry">
            <mxPoint x="398.5" y="1042.5" as="sourcePoint" />
            <mxPoint x="498" y="690" as="targetPoint" />
          </mxGeometry>
        </mxCell>
        <mxCell id="BRmMSrhpgf5mqmjx6hY6-82" value="Physical tag" style="edgeLabel;html=1;align=center;verticalAlign=middle;resizable=0;points=[];" vertex="1" connectable="0" parent="BRmMSrhpgf5mqmjx6hY6-73">
          <mxGeometry x="-0.1674" relative="1" as="geometry">
            <mxPoint as="offset" />
          </mxGeometry>
        </mxCell>
        <mxCell id="BRmMSrhpgf5mqmjx6hY6-80" style="edgeStyle=orthogonalEdgeStyle;rounded=0;orthogonalLoop=1;jettySize=auto;html=1;exitX=1;exitY=0.5;exitDx=0;exitDy=0;fillColor=#1ba1e2;strokeColor=#006EAF;" edge="1" parent="1" source="BRmMSrhpgf5mqmjx6hY6-76">
          <mxGeometry relative="1" as="geometry">
            <mxPoint x="759" y="881.7777777777778" as="targetPoint" />
          </mxGeometry>
        </mxCell>
        <mxCell id="BRmMSrhpgf5mqmjx6hY6-81" value="Access fault?" style="edgeLabel;html=1;align=center;verticalAlign=middle;resizable=0;points=[];" vertex="1" connectable="0" parent="BRmMSrhpgf5mqmjx6hY6-80">
          <mxGeometry x="-0.2823" y="1" relative="1" as="geometry">
            <mxPoint as="offset" />
          </mxGeometry>
        </mxCell>
        <mxCell id="BRmMSrhpgf5mqmjx6hY6-76" value="PMA and misaligned check" style="whiteSpace=wrap;html=1;aspect=fixed;" vertex="1" parent="1">
          <mxGeometry x="519" y="841.25" width="80" height="80" as="geometry" />
        </mxCell>
        <mxCell id="BRmMSrhpgf5mqmjx6hY6-84" value="" style="endArrow=classic;html=1;rounded=0;entryX=0.75;entryY=1;entryDx=0;entryDy=0;fillColor=#1ba1e2;strokeColor=#006EAF;" edge="1" parent="1" target="BRmMSrhpgf5mqmjx6hY6-37">
          <mxGeometry width="50" height="50" relative="1" as="geometry">
            <mxPoint x="529" y="715" as="sourcePoint" />
            <mxPoint x="589" y="700" as="targetPoint" />
          </mxGeometry>
        </mxCell>
        <mxCell id="BRmMSrhpgf5mqmjx6hY6-85" value="Mem enable" style="edgeLabel;html=1;align=center;verticalAlign=middle;resizable=0;points=[];" vertex="1" connectable="0" parent="BRmMSrhpgf5mqmjx6hY6-84">
          <mxGeometry x="-0.7188" relative="1" as="geometry">
            <mxPoint x="-7" as="offset" />
          </mxGeometry>
        </mxCell>
        <mxCell id="BRmMSrhpgf5mqmjx6hY6-88" value="" style="endArrow=classic;html=1;rounded=0;fillColor=#1ba1e2;strokeColor=#006EAF;" edge="1" parent="1">
          <mxGeometry width="50" height="50" relative="1" as="geometry">
            <mxPoint x="629" y="200" as="sourcePoint" />
            <mxPoint x="629" y="300" as="targetPoint" />
          </mxGeometry>
        </mxCell>
        <mxCell id="BRmMSrhpgf5mqmjx6hY6-90" value="Read width" style="edgeLabel;html=1;align=center;verticalAlign=middle;resizable=0;points=[];" vertex="1" connectable="0" parent="BRmMSrhpgf5mqmjx6hY6-88">
          <mxGeometry x="-0.655" y="2" relative="1" as="geometry">
            <mxPoint as="offset" />
          </mxGeometry>
        </mxCell>
        <mxCell id="BRmMSrhpgf5mqmjx6hY6-91" value="" style="endArrow=classic;html=1;rounded=0;fillColor=#1ba1e2;strokeColor=#006EAF;" edge="1" parent="1">
          <mxGeometry width="50" height="50" relative="1" as="geometry">
            <mxPoint x="559" y="770" as="sourcePoint" />
            <mxPoint x="559" y="840" as="targetPoint" />
          </mxGeometry>
        </mxCell>
        <mxCell id="BRmMSrhpgf5mqmjx6hY6-92" value="Read width, write width,&lt;div&gt;access type, mem enable&lt;/div&gt;" style="edgeLabel;html=1;align=center;verticalAlign=middle;resizable=0;points=[];" vertex="1" connectable="0" parent="BRmMSrhpgf5mqmjx6hY6-91">
          <mxGeometry x="-0.4476" y="-2" relative="1" as="geometry">
            <mxPoint x="2" as="offset" />
          </mxGeometry>
        </mxCell>
        <mxCell id="BRmMSrhpgf5mqmjx6hY6-113" style="edgeStyle=orthogonalEdgeStyle;rounded=0;orthogonalLoop=1;jettySize=auto;html=1;exitX=0.5;exitY=1;exitDx=0;exitDy=0;fillColor=#1ba1e2;strokeColor=#006EAF;" edge="1" parent="1">
          <mxGeometry relative="1" as="geometry">
            <mxPoint x="260" y="1380" as="targetPoint" />
            <mxPoint x="259.5" y="1270" as="sourcePoint" />
          </mxGeometry>
        </mxCell>
        <mxCell id="BRmMSrhpgf5mqmjx6hY6-114" value="Hit?" style="edgeLabel;html=1;align=center;verticalAlign=middle;resizable=0;points=[];" vertex="1" connectable="0" parent="BRmMSrhpgf5mqmjx6hY6-113">
          <mxGeometry x="0.5829" y="-1" relative="1" as="geometry">
            <mxPoint as="offset" />
          </mxGeometry>
        </mxCell>
        <mxCell id="BRmMSrhpgf5mqmjx6hY6-121" value="" style="endArrow=classic;html=1;rounded=0;entryX=0.375;entryY=1;entryDx=10;entryDy=0;entryPerimeter=0;fillColor=#1ba1e2;strokeColor=#006EAF;" edge="1" parent="1" target="BRmMSrhpgf5mqmjx6hY6-122">
          <mxGeometry width="50" height="50" relative="1" as="geometry">
            <mxPoint x="438.87" y="1446.5" as="sourcePoint" />
            <mxPoint x="439" y="1340" as="targetPoint" />
          </mxGeometry>
        </mxCell>
        <mxCell id="BRmMSrhpgf5mqmjx6hY6-125" value="Use virtual memory?" style="edgeLabel;html=1;align=center;verticalAlign=middle;resizable=0;points=[];" vertex="1" connectable="0" parent="BRmMSrhpgf5mqmjx6hY6-121">
          <mxGeometry x="-0.1258" relative="1" as="geometry">
            <mxPoint as="offset" />
          </mxGeometry>
        </mxCell>
        <mxCell id="BRmMSrhpgf5mqmjx6hY6-123" style="edgeStyle=orthogonalEdgeStyle;rounded=0;orthogonalLoop=1;jettySize=auto;html=1;exitX=1;exitY=0.5;exitDx=0;exitDy=-5;exitPerimeter=0;entryX=0;entryY=0.75;entryDx=0;entryDy=0;" edge="1" parent="1" source="BRmMSrhpgf5mqmjx6hY6-122" target="BRmMSrhpgf5mqmjx6hY6-40">
          <mxGeometry relative="1" as="geometry" />
        </mxCell>
        <mxCell id="BRmMSrhpgf5mqmjx6hY6-124" value="PPN" style="edgeLabel;html=1;align=center;verticalAlign=middle;resizable=0;points=[];" vertex="1" connectable="0" parent="BRmMSrhpgf5mqmjx6hY6-123">
          <mxGeometry x="-0.6412" y="-2" relative="1" as="geometry">
            <mxPoint as="offset" />
          </mxGeometry>
        </mxCell>
        <mxCell id="BRmMSrhpgf5mqmjx6hY6-122" value="" style="shadow=0;dashed=0;align=center;html=1;strokeWidth=1;shape=mxgraph.electrical.abstract.mux2;whiteSpace=wrap;" vertex="1" parent="1">
          <mxGeometry x="399" y="1198" width="80" height="120" as="geometry" />
        </mxCell>
        <mxCell id="BRmMSrhpgf5mqmjx6hY6-126" value="TLB" style="whiteSpace=wrap;html=1;aspect=fixed;" vertex="1" parent="1">
          <mxGeometry x="220" y="1198" width="80" height="80" as="geometry" />
        </mxCell>
        <mxCell id="BRmMSrhpgf5mqmjx6hY6-128" style="edgeStyle=orthogonalEdgeStyle;rounded=0;orthogonalLoop=1;jettySize=auto;html=1;exitX=1;exitY=0.75;exitDx=0;exitDy=0;entryX=0;entryY=0.21666666666666667;entryDx=0;entryDy=3;entryPerimeter=0;" edge="1" parent="1" source="BRmMSrhpgf5mqmjx6hY6-8" target="BRmMSrhpgf5mqmjx6hY6-122">
          <mxGeometry relative="1" as="geometry" />
        </mxCell>
        <mxCell id="BRmMSrhpgf5mqmjx6hY6-130" style="edgeStyle=orthogonalEdgeStyle;rounded=0;orthogonalLoop=1;jettySize=auto;html=1;exitX=1;exitY=0.75;exitDx=0;exitDy=0;entryX=0;entryY=0.65;entryDx=0;entryDy=3;entryPerimeter=0;" edge="1" parent="1" source="BRmMSrhpgf5mqmjx6hY6-126" target="BRmMSrhpgf5mqmjx6hY6-122">
          <mxGeometry relative="1" as="geometry" />
        </mxCell>
        <mxCell id="BRmMSrhpgf5mqmjx6hY6-136" value="" style="endArrow=classic;html=1;rounded=0;entryX=0.5;entryY=1;entryDx=0;entryDy=0;fillColor=#1ba1e2;strokeColor=#006EAF;" edge="1" parent="1" target="BRmMSrhpgf5mqmjx6hY6-67">
          <mxGeometry width="50" height="50" relative="1" as="geometry">
            <mxPoint x="630" y="580" as="sourcePoint" />
            <mxPoint x="660" y="530" as="targetPoint" />
          </mxGeometry>
        </mxCell>
        <mxCell id="BRmMSrhpgf5mqmjx6hY6-137" value="Write width,&lt;div&gt;AMO op&lt;/div&gt;" style="edgeLabel;html=1;align=center;verticalAlign=middle;resizable=0;points=[];" vertex="1" connectable="0" parent="BRmMSrhpgf5mqmjx6hY6-136">
          <mxGeometry x="-0.0234" y="-1" relative="1" as="geometry">
            <mxPoint as="offset" />
          </mxGeometry>
        </mxCell>
      </root>
    </mxGraphModel>
  </diagram>
</mxfile>
